name C:\Users\tom_v\My Drive\PostDoc\MusculoskeletalSpecialization\ResultsSprinting\Case_3\motion.mot
datacolumns 32
datarows 7
range 0.14269479 0.17694154
endheader 
time	pelvis_tilt	pelvis_list	pelvis_rotation	pelvis_tx	pelvis_ty	pelvis_tz	hip_flexion_r	hip_adduction_r	hip_rotation_r	knee_angle_r	ankle_angle_r	subtalar_angle_r	mtp_angle_r	hip_flexion_l	hip_adduction_l	hip_rotation_l	knee_angle_l	ankle_angle_l	subtalar_angle_l	mtp_angle_l	lumbar_extension	lumbar_bending	lumbar_rotation	arm_flex_r	arm_add_r	arm_rot_r	elbow_flex_r	arm_flex_l	arm_add_l	arm_rot_l	elbow_flex_l	
          0.14269479	        -11.16149306	         -0.41171981	          1.40277156	          0.47369366	          0.87400156	          0.00477727	         23.21600835	          8.12183102	          8.21793664	        -45.98966674	         19.83605287	         -8.59282694	         29.89421198	         29.41333520	         -0.15600703	         -1.78299294	        -79.20856735	          5.26708000	          8.43679540	          4.81717755	         -1.82749339	          1.30767388	          1.46246518	         14.00801919	         -3.65265678	         -0.30211555	          1.82183359	         10.33926523	         -3.31548029	         -1.66891648	         16.53303340	
          0.14840258	        -11.21302088	         -0.11417497	          1.38147165	          0.49173864	          0.87592782	          0.00488956	         21.70638887	          7.62063313	          8.09325041	        -45.22119100	         19.02945910	         -8.13256717	         32.15468563	         31.15357119	          0.24018480	         -2.03580977	        -79.51309392	          6.07797764	          7.80035107	          4.43305107	         -1.92534405	          0.84291098	          1.77989967	         13.97097066	         -3.64375033	          0.06384687	          2.00360865	         10.14906600	         -3.48246404	         -1.11151807	         17.73053746	
          0.15411037	        -11.26532846	          0.19146502	          1.35648399	          0.50988386	          0.87799060	          0.00498623	         20.18023815	          7.08604061	          7.93189785	        -44.38822102	         18.09244872	         -7.63198658	         34.40185288	         32.85063073	          0.64279243	         -2.28211916	        -79.66053112	          6.82943522	          7.17529719	          4.07758751	         -2.01471372	          0.36420167	          2.08758776	         13.90757935	         -3.63496129	          0.47842991	          2.22473050	          9.93616992	         -3.66233208	         -0.55341480	         18.94870253	
          0.15981816	        -11.31760647	          0.50237689	          1.32954884	          0.52814171	          0.88015240	          0.00506555	         18.63745680	          6.52332452	          7.73457540	        -43.49448024	         17.03485058	         -7.08967237	         36.61726491	         34.49879857	          1.04537754	         -2.52294789	        -79.65248531	          7.51356579	          6.56617152	          3.75126573	         -2.09416516	         -0.12442629	          2.38434828	         13.82381897	         -3.62474167	          0.92142274	          2.46447859	          9.70555845	         -3.85134799	         -0.01142212	         20.16965320	
          0.16552596	        -11.36907606	          0.81490518	          1.30233004	          0.54652211	          0.88237435	          0.00512646	         17.07610258	          5.93982095	          7.50503245	        -42.54045790	         15.86594403	         -6.50858325	         38.78210135	         36.09343140	          1.44132079	         -2.75847124	        -79.49247158	          8.12042700	          5.97787118	          3.45377750	         -2.16238437	         -0.61803185	          2.66940472	         13.72462793	         -3.61193950	          1.37895103	          2.70518015	          9.46359148	         -4.04487045	          0.49975773	         21.37207136	
          0.17123375	        -11.41908121	          1.12565840	          1.27625753	          0.56503257	          0.88461804	          0.00516832	         15.49248855	          5.34379090	          7.25015235	        -41.52340253	         14.59484120	         -5.89722166	         40.87540237	         37.63059606	          1.82535942	         -2.98799094	        -79.18478192	          8.64126502	          5.41431398	          3.18330179	         -2.21823106	         -1.11198394	          2.94241928	         13.61397170	         -3.59570276	          1.84426242	          2.93210015	          9.21735889	         -4.23785331	          0.96833766	         22.53300688	
          0.17694154	        -11.46688203	          1.43150248	          1.25255584	          0.58367893	          0.88684737	          0.00519017	         13.88187690	          4.74402614	          6.97895780	        -40.43910776	         13.22981171	         -5.26887427	         42.87393549	         39.10567363	          2.19410454	         -3.20912410	        -78.73108842	          9.07070490	          4.87459140	          2.93761627	         -2.26087453	         -1.60183963	          3.20340903	         13.49492682	         -3.57559388	          2.31722021	          3.13314643	          8.97408664	         -4.42506099	          1.38560045	         23.62935302	
